<?xml version="1.0" standalone="no"?>
<!DOCTYPE svg PUBLIC "-//W3C//DTD SVG 20010904//EN"
 "http://www.w3.org/TR/2001/REC-SVG-20010904/DTD/svg10.dtd">
<svg version="1.0" xmlns="http://www.w3.org/2000/svg"
 width="400.000000pt" height="400.000000pt" viewBox="0 0 400.000000 400.000000"
 preserveAspectRatio="xMidYMid meet">
<metadata>
Created by potrace 1.14, written by Peter Selinger 2001-2017
</metadata>
<g transform="translate(0.000000,400.000000) scale(0.100000,-0.100000)"
fill="#000000" stroke="none">
<path d="M0 2000 l0 -2000 2000 0 2000 0 0 2000 0 2000 -2000 0 -2000 0 0
-2000z m348 67 c2 -302 2 -307 -18 -307 -20 0 -20 6 -20 303 0 167 3 307 7
311 24 24 28 -16 31 -307z m1182 153 c20 -10 45 -34 55 -54 21 -38 20 -40 -11
-50 -17 -5 -26 0 -43 29 -38 65 -137 83 -200 38 -90 -65 -99 -251 -17 -341 69
-76 208 -65 239 18 12 32 22 36 47 20 13 -8 12 -14 -5 -47 -31 -57 -75 -78
-165 -77 -123 0 -194 51 -226 161 -41 141 31 300 143 318 21 4 43 8 48 10 20
7 101 -8 135 -25z m515 19 c51 -14 92 -53 105 -98 5 -20 10 -114 10 -208 l0
-173 -45 0 -45 0 0 164 c0 91 -4 176 -10 190 -12 32 -69 61 -103 52 -39 -9
-83 -52 -103 -98 -12 -31 -19 -79 -22 -175 l-4 -133 -44 0 -44 0 0 241 0 240
22 -3 c17 -2 24 -13 31 -43 21 -99 16 -95 43 -43 26 52 56 76 107 88 46 11 57
11 102 -1z m571 -10 c43 -13 88 -61 102 -107 7 -22 12 -89 12 -150 0 -117 9
-142 51 -142 14 0 19 -7 19 -26 0 -54 -116 -69 -175 -22 -14 10 -25 28 -25 38
0 27 -17 34 -25 10 -3 -11 -22 -32 -42 -47 -29 -22 -46 -27 -92 -28 -102 0
-154 42 -154 125 0 84 65 123 206 123 l87 -1 0 52 c0 72 -19 96 -75 96 -46 0
-75 -24 -75 -62 0 -11 -10 -20 -27 -24 -16 -3 -43 -10 -60 -14 -39 -10 -44 -4
-45 51 0 44 20 79 63 111 46 34 172 42 255 17z m651 -6 c18 -8 46 -35 62 -59
l29 -44 17 28 c53 83 112 112 188 92 23 -7 55 -24 71 -38 51 -48 59 -81 64
-269 l5 -173 -102 0 -101 0 0 149 c0 123 -3 152 -16 165 -18 19 -28 20 -53 6
-34 -18 -54 -88 -59 -207 l-5 -113 -92 0 -93 0 -4 148 c-3 154 -10 182 -47
182 -24 0 -60 -40 -71 -81 -6 -19 -10 -82 -10 -141 l0 -108 -90 0 -90 0 0 224
c0 123 3 231 6 240 4 12 20 16 54 16 l48 0 13 -65 c7 -36 16 -65 20 -65 3 0
12 13 19 29 26 64 114 116 175 105 17 -4 45 -13 62 -21z m-2447 -1 c49 -26 80
-90 80 -164 l0 -58 -176 0 -177 0 6 -45 c6 -62 52 -133 101 -158 47 -25 127
-25 163 -1 14 9 30 29 36 45 12 29 30 38 42 19 10 -15 -21 -58 -57 -79 -65
-40 -176 -34 -249 14 -70 46 -105 168 -80 280 14 60 66 128 115 150 47 20 154
19 196 -3z"/>
<path d="M2500 1948 c-47 -13 -70 -36 -70 -68 0 -35 17 -50 58 -50 47 0 92 46
92 94 0 40 -12 44 -80 24z"/>
<path d="M674 2219 c-56 -16 -124 -112 -124 -174 l0 -25 155 0 155 0 0 48 c0
110 -86 180 -186 151z"/>
</g>
</svg>
